<svg xmlns="http://www.w3.org/2000/svg" viewBox="0 0 1000 440">
  <style>
    .item-label { font-size: 14px; fill: #333; text-anchor: middle; }
    .respondent-label { font-size: 14px; fill: #333; text-anchor: end; }
    .data-point { fill: #fff; stroke: #333; stroke-width: 2; }
    .change-point { fill: #ccc; stroke: #333; stroke-width: 2; }
    .data-label { font-size: 12px; fill: #333; text-anchor: middle; dominant-baseline: middle; }
    .ellipsis { font-size: 24px; fill: #333; text-anchor: middle; }
  </style>
  
  <!-- Item labels (centered) -->
  <text x="140" y="30" class="item-label">Item 1</text>
  <text x="220" y="30" class="item-label">Item 2</text>
  <text x="300" y="30" class="item-label">Item 3</text>
  <text x="380" y="30" class="item-label">Item 4</text>
  <text x="460" y="30" class="item-label">Item 5</text>
  <text x="540" y="30" class="item-label">Item 6</text>
  <text x="620" y="30" class="item-label">Item 7</text>
  <text x="700" y="30" class="item-label">Item 8</text>
  <text x="780" y="30" class="item-label">Item 9</text>
  <text x="860" y="30" class="item-label">Item 10</text>
  
  <!-- Respondent labels -->
  <text x="110" y="80" class="respondent-label">Respondent 1</text>
  <text x="110" y="140" class="respondent-label">Respondent 2</text>
  <text x="110" y="200" class="respondent-label">Respondent 3</text>
  <text x="110" y="260" class="respondent-label">Respondent 4</text>
  <text x="110" y="380" class="respondent-label">Respondent N</text>
  
  <!-- Data points and labels for Respondent 1 (change-point at item 6) -->
  <circle cx="140" cy="80" r="20" class="data-point" />
  <text x="140" y="80" class="data-label">Y₁₁</text>
  <circle cx="220" cy="80" r="20" class="data-point" />
  <text x="220" y="80" class="data-label">Y₁₂</text>
  <circle cx="300" cy="80" r="20" class="data-point" />
  <text x="300" y="80" class="data-label">Y₁₃</text>
  <circle cx="380" cy="80" r="20" class="data-point" />
  <text x="380" y="80" class="data-label">Y₁₄</text>
  <circle cx="460" cy="80" r="20" class="data-point" />
  <text x="460" y="80" class="data-label">Y₁₅</text>
  <circle cx="540" cy="80" r="20" class="change-point" />
  <text x="540" y="80" class="data-label">Y₁₆</text>
  <circle cx="620" cy="80" r="20" class="change-point" />
  <text x="620" y="80" class="data-label">Y₁₇</text>
  <circle cx="700" cy="80" r="20" class="change-point" />
  <text x="700" y="80" class="data-label">Y₁₈</text>
  <circle cx="780" cy="80" r="20" class="change-point" />
  <text x="780" y="80" class="data-label">Y₁₉</text>
  <circle cx="860" cy="80" r="20" class="change-point" />
  <text x="860" y="80" class="data-label">Y₁₁₀</text>
  
  <!-- Data points and labels for Respondent 2 (change-point at item 8) -->
  <circle cx="140" cy="140" r="20" class="data-point" />
  <text x="140" y="140" class="data-label">Y₂₁</text>
  <circle cx="220" cy="140" r="20" class="data-point" />
  <text x="220" y="140" class="data-label">Y₂₂</text>
  <circle cx="300" cy="140" r="20" class="data-point" />
  <text x="300" y="140" class="data-label">Y₂₃</text>
  <circle cx="380" cy="140" r="20" class="data-point" />
  <text x="380" y="140" class="data-label">Y₂₄</text>
  <circle cx="460" cy="140" r="20" class="data-point" />
  <text x="460" y="140" class="data-label">Y₂₅</text>
  <circle cx="540" cy="140" r="20" class="data-point" />
  <text x="540" y="140" class="data-label">Y₂₆</text>
  <circle cx="620" cy="140" r="20" class="data-point" />
  <text x="620" y="140" class="data-label">Y₂₇</text>
  <circle cx="700" cy="140" r="20" class="change-point" />
  <text x="700" y="140" class="data-label">Y₂₈</text>
  <circle cx="780" cy="140" r="20" class="change-point" />
  <text x="780" y="140" class="data-label">Y₂₉</text>
  <circle cx="860" cy="140" r="20" class="change-point" />
  <text x="860" y="140" class="data-label">Y₂₁₀</text>
  
  <!-- Data points and labels for Respondent 3 (change-point at item 9) -->
  <circle cx="140" cy="200" r="20" class="data-point" />
  <text x="140" y="200" class="data-label">Y₃₁</text>
  <circle cx="220" cy="200" r="20" class="data-point" />
  <text x="220" y="200" class="data-label">Y₃₂</text>
  <circle cx="300" cy="200" r="20" class="data-point" />
  <text x="300" y="200" class="data-label">Y₃₃</text>
  <circle cx="380" cy="200" r="20" class="data-point" />
  <text x="380" y="200" class="data-label">Y₃₄</text>
  <circle cx="460" cy="200" r="20" class="data-point" />
  <text x="460" y="200" class="data-label">Y₃₅</text>
  <circle cx="540" cy="200" r="20" class="data-point" />
  <text x="540" y="200" class="data-label">Y₃₆</text>
  <circle cx="620" cy="200" r="20" class="data-point" />
  <text x="620" y="200" class="data-label">Y₃₇</text>
  <circle cx="700" cy="200" r="20" class="data-point" />
  <text x="700" y="200" class="data-label">Y₃₈</text>
  <circle cx="780" cy="200" r="20" class="change-point" />
  <text x="780" y="200" class="data-label">Y₃₉</text>
  <circle cx="860" cy="200" r="20" class="change-point" />
  <text x="860" y="200" class="data-label">Y₃₁₀</text>
  
  <!-- Data points and labels for Respondent 4 (change-point at item 7) -->
  <circle cx="140" cy="260" r="20" class="data-point" />
  <text x="140" y="260" class="data-label">Y₄₁</text>
  <circle cx="220" cy="260" r="20" class="data-point" />
  <text x="220" y="260" class="data-label">Y₄₂</text>
  <circle cx="300" cy="260" r="20" class="data-point" />
  <text x="300" y="260" class="data-label">Y₄₃</text>
  <circle cx="380" cy="260" r="20" class="data-point" />
  <text x="380" y="260" class="data-label">Y₄₄</text>
  <circle cx="460" cy="260" r="20" class="data-point" />
  <text x="460" y="260" class="data-label">Y₄₅</text>
  <circle cx="540" cy="260" r="20" class="data-point" />
  <text x="540" y="260" class="data-label">Y₄₆</text>
  <circle cx="620" cy="260" r="20" class="change-point" />
  <text x="620" y="260" class="data-label">Y₄₇</text>
  <circle cx="700" cy="260" r="20" class="change-point" />
  <text x="700" y="260" class="data-label">Y₄₈</text>
  <circle cx="780" cy="260" r="20" class="change-point" />
  <text x="780" y="260" class="data-label">Y₄₉</text>
  <circle cx="860" cy="260" r="20" class="change-point" />
  <text x="860" y="260" class="data-label">Y₄₁₀</text>
  
  <!-- Vertical ellipsis -->
  <text x="500" y="320" class="ellipsis">⋮</text>
  
  <!-- Data points and labels for Respondent N (change-point at item 10) -->
  <circle cx="140" cy="380" r="20" class="data-point" />
  <text x="140" y="380" class="data-label">Yₙ₁</text>
  <circle cx="220" cy="380" r="20" class="data-point" />
  <text x="220" y="380" class="data-label">Yₙ₂</text>
  <circle cx="300" cy="380" r="20" class="data-point" />
  <text x="300" y="380" class="data-label">Yₙ₃</text>
  <circle cx="380" cy="380" r="20" class="data-point" />
  <text x="380" y="380" class="data-label">Yₙ₄</text>
  <circle cx="460" cy="380" r="20" class="data-point" />
  <text x="460" y="380" class="data-label">Yₙ₅</text>
  <circle cx="540" cy="380" r="20" class="data-point" />
  <text x="540" y="380" class="data-label">Yₙ₆</text>
  <circle cx="620" cy="380" r="20" class="data-point" />
  <text x="620" y="380" class="data-label">Yₙ₇</text>
  <circle cx="700" cy="380" r="20" class="data-point" />
  <text x="700" y="380" class="data-label">Yₙ₈</text>
  <circle cx="780" cy="380" r="20" class="data-point" />
  <text x="780" y="380" class="data-label">Yₙ₉</text>
  <circle cx="860" cy="380" r="20" class="change-point" />
  <text x="860" y="380" class="data-label">Yₙ₁₀</text>
</svg>